<svg xmlns="http://www.w3.org/2000/svg" xmlns:xlink="http://www.w3.org/1999/xlink" version="1.1" x="0px" y="0px" viewBox="0 0 48 60" enable-background="new 0 0 48 48" xml:space="preserve"><g><path d="M25.572,42.869c-12.366,0-22.427-10.062-22.427-22.428c0-0.552,0.448-1,1-1s1,0.448,1,1   c0,11.264,9.164,20.428,20.427,20.428S46,31.705,46,20.441c0-0.552,0.447-1,1-1s1,0.448,1,1C48,32.808,37.938,42.869,25.572,42.869   z"/><path d="M25.573,27.705c-11.145,0-22.427-2.495-22.427-7.264s11.282-7.264,22.427-7.264C36.718,13.177,48,15.672,48,20.441   S36.718,27.705,25.573,27.705z M25.573,15.177c-12.656,0-20.427,3.066-20.427,5.264s7.771,5.264,20.427,5.264   C38.229,25.705,46,22.639,46,20.441S38.229,15.177,25.573,15.177z"/><path d="M19.246,23.866c-0.216,0-0.434-0.069-0.617-0.213L0.383,9.344c-0.435-0.341-0.511-0.97-0.17-1.404   c0.341-0.435,0.97-0.511,1.404-0.17l18.246,14.309c0.435,0.341,0.511,0.97,0.17,1.404C19.836,23.735,19.542,23.866,19.246,23.866z"/><path d="M25.571,21.441c-0.216,0-0.433-0.069-0.616-0.213L6.709,6.917C6.274,6.577,6.198,5.948,6.54,5.514   c0.34-0.435,0.969-0.511,1.404-0.17l18.246,14.311c0.435,0.341,0.511,0.969,0.17,1.404C26.162,21.31,25.868,21.441,25.571,21.441z"/><path d="M27.749,23.762c-0.452,0-0.862-0.309-0.972-0.768c-0.128-0.537,0.203-1.077,0.74-1.205c0.765-0.182,1.524-0.166,2.26-0.153   c0.272,0.005,0.541,0.012,0.797,0.005c0.025-0.044,0.055-0.086,0.087-0.126c1.118-1.384,2.996-1.68,4.653-1.94   c0.442-0.07,0.871-0.137,1.265-0.221c-0.431-0.481-1.12-0.565-2.238-0.658c-0.869-0.072-1.854-0.154-2.729-0.618   c-0.487-0.259-0.674-0.864-0.415-1.352c0.259-0.489,0.864-0.675,1.353-0.415c0.513,0.272,1.215,0.33,1.958,0.392   c1.567,0.13,3.713,0.309,4.433,3.018c0.127,0.479-0.116,0.979-0.572,1.175c-0.821,0.353-1.798,0.506-2.742,0.654   c-1.06,0.167-2.146,0.337-2.876,0.773c0.026,0.154,0.018,0.315-0.03,0.469c-0.102,0.328-0.364,0.581-0.696,0.67   c-0.758,0.203-1.536,0.187-2.286,0.173c-0.637-0.014-1.237-0.026-1.754,0.098C27.904,23.753,27.826,23.762,27.749,23.762z"/></g></svg>