<svg xmlns="http://www.w3.org/2000/svg" xmlns:xlink="http://www.w3.org/1999/xlink" version="1.1" x="0px" y="0px" viewBox="0 0 128 160" enable-background="new 0 0 128 128" xml:space="preserve"><g><path fill="#000000" d="M120.6,27.8c-0.4-1.4-1.8-2.1-3.1-1.8L60.9,41.7v-6.9l46.3-29.1c1.2-0.7,1.5-2.3,0.8-3.5   c-0.7-1.2-2.3-1.5-3.5-0.8L40.4,41.7c0,0,0,0,0,0c-0.1,0.1-0.2,0.1-0.2,0.2c-0.1,0-0.1,0.1-0.2,0.1c-0.1,0.1-0.1,0.1-0.2,0.2   c-0.1,0.1-0.1,0.1-0.2,0.2c0,0.1-0.1,0.1-0.1,0.2c0,0.1-0.1,0.1-0.1,0.2c0,0.1,0,0.1-0.1,0.2c0,0.1-0.1,0.2-0.1,0.2   c0,0.1,0,0.1,0,0.2c0,0.1,0,0.2,0,0.3c0,0,0,0,0,0v31.9c0,1.4,1.1,2.5,2.5,2.5c1.4,0,2.5-1.1,2.5-2.5V51.6l3.2-0.9v17.2   c0,1.4,1.1,2.5,2.5,2.5c1.4,0,2.5-1.1,2.5-2.5V49.3l3.2-0.9v14.9c0,1.4,1.1,2.5,2.5,2.5c1.4,0,2.5-1.1,2.5-2.5V47l57.9-16   C120.2,30.6,121,29.2,120.6,27.8z M44.3,46.3v-1l3.2-2v2.2L44.3,46.3z M52.6,44v-4l3.2-2v5.1L52.6,44z"/><path fill="#000000" d="M58.4,93.2C38.1,93.2,17.6,90.1,8,84c4,24.3,25.1,43,50.4,43c25.4,0,46.5-18.6,50.4-43   C99.2,90.1,78.7,93.2,58.4,93.2z"/><path fill="#000000" d="M66,64.1c-0.4,3.8-3.6,6.8-7.6,6.8c-0.4,0-0.9,0-1.3-0.1c-1.2,2.8-3.9,4.7-7,4.7c-0.2,0-0.5,0-0.7,0v0.3   c0,4.2-3.4,7.6-7.6,7.6c-4.2,0-7.6-3.4-7.6-7.6V65.6C17.4,68,7.4,72.5,7.3,76c0,0,0,0.1,0,0.1c0.2,4.9,20,12,51.1,12   c31,0,50.9-7.1,51.1-12c0,0,0-0.1,0-0.1C109.4,71.5,92.7,65.2,66,64.1z"/></g></svg>